<svg width="20" height="19" viewBox="0 0 40 38" fill="none" xmlns="http://www.w3.org/2000/svg">
<path d="M35.4587 2.17562C30.1856 6.73937 25.7244 11.0837 21.64 16.7519C19.8387 19.2519 17.8356 22.1944 16.5262 24.9725C15.7787 26.4456 14.4312 28.7475 13.9719 30.9606C11.4594 28.6231 8.76061 25.97 5.99936 23.8919C4.03123 22.4112 -1.63752 25.43 0.669982 27.1662C4.80561 30.2769 8.24498 34.1512 12.2675 37.4006C13.95 38.7581 17.6787 35.81 18.555 34.5731C21.4312 30.4981 21.8244 25.5169 23.9206 21.0719C27.1212 14.2737 32.7975 8.68937 38.4019 3.84C42.115 0.376874 38.28 -0.261876 35.4644 2.17562" fill="white"/>
</svg>
